<svg xmlns="http://www.w3.org/2000/svg" width="673.1" height="186.601"><path fill="#FFF" d="M253.7 110.2c1.3 0 2.4.5 3.3 1.4.9.899 1.4 2 1.4 3.3s-.5 2.399-1.4 3.3c-6.1 5.3-13.2 7.9-21.4 7.9-9.1 0-16.8-3.2-23.2-9.601-6.4-6.399-9.6-14.2-9.6-23.2 0-9.1 3.2-16.8 9.6-23.2s14.2-9.6 23.2-9.6c9.1 0 16.8 3.2 23.2 9.6 6.4 6.4 9.6 14.2 9.6 23.2 0 1.301-.5 2.4-1.4 3.301-.9.9-2 1.4-3.3 1.4h-51.2c.9 4.5 3 8.5 6.5 11.9 4.6 4.6 10.1 6.899 16.6 6.899 5.9 0 10.9-1.899 15.1-5.6.9-.598 1.9-.999 3-.999m5-21.599c-.9-4.5-3-8.5-6.5-11.9-4.6-4.6-10.1-6.9-16.6-6.9s-12 2.3-16.6 6.9c-3.4 3.4-5.6 7.4-6.5 11.9h46.2zm80.2 32.899c0 1.3-.5 2.4-1.4 3.3-.9.9-2 1.4-3.3 1.4-1.3 0-2.4-.5-3.3-1.4-.9-.899-1.4-2-1.4-3.3v-3.8c-5.9 5.7-12.9 8.5-21.1 8.5-8.4 0-15.6-3-21.6-9s-9-13.2-9-21.6V65.1c0-1.3.5-2.4 1.4-3.3.9-.9 2-1.4 3.3-1.4s2.4.5 3.3 1.4c.9.9 1.4 2 1.4 3.3v30.6c0 5.8 2.1 10.8 6.2 14.9s9.1 6.199 14.9 6.199c5.8 0 10.8-2.1 14.9-6.199 4.1-4.101 6.2-9.101 6.2-14.9V65.2c0-1.3.5-2.4 1.4-3.3.9-.9 2-1.4 3.3-1.4 1.3 0 2.4.5 3.3 1.4.9.9 1.4 2 1.4 3.3v56.3h.1zm9.4-56.3c0-1.3.5-2.4 1.4-3.3.9-.9 2-1.4 3.3-1.4s2.4.5 3.3 1.4c.9.9 1.4 2 1.4 3.3v5.2c6.6-6.6 14.399-9.9 23.5-9.9 4.6 0 8.8.8 12.6 2.3.7.3 1.3.7 1.9 1.2.899.9 1.399 2.1 1.399 3.3 0 1.3-.5 2.4-1.399 3.3-.9.9-2 1.4-3.3 1.4-.7 0-1.4-.2-2.101-.5-2.8-1.2-5.8-1.8-9.2-1.8-6.5 0-12 2.3-16.6 6.9-4.6 4.6-6.9 10.1-6.9 16.6v28.2c0 1.3-.5 2.399-1.4 3.3-.9.9-2 1.4-3.3 1.4-1.3 0-2.4-.5-3.3-1.4s-1.4-2-1.4-3.3V65.2h.101zm107.3 45c1.301 0 2.4.5 3.301 1.4.899.899 1.399 2 1.399 3.3s-.5 2.399-1.3 3.3c-6.1 5.3-13.2 7.9-21.4 7.9-9.1 0-16.8-3.2-23.199-9.601-6.4-6.399-9.601-14.2-9.601-23.2 0-9.1 3.2-16.8 9.601-23.2 6.399-6.4 14.199-9.6 23.199-9.6 9.101 0 16.801 3.2 23.2 9.6 6.4 6.4 9.601 14.2 9.601 23.2 0 1.301-.5 2.4-1.4 3.301-.901.9-2.001 1.4-3.301 1.4h-51.2c.9 4.5 3 8.5 6.5 11.9 4.6 4.6 10.1 6.899 16.6 6.899 5.9 0 10.9-1.899 15.101-5.6.799-.598 1.799-.999 2.899-.999m5-21.599c-.899-4.5-3-8.5-6.5-11.9-4.6-4.6-10.1-6.9-16.6-6.9s-12 2.3-16.6 6.9c-3.4 3.4-5.601 7.4-6.5 11.9h46.2zM489.2 87l39.7-25.8c.699-.5 1.6-.7 2.5-.7 1.3 0 2.399.5 3.3 1.4.899.9 1.399 2 1.399 3.3s-.5 2.4-1.399 3.3c-.2.2-.5.4-.601.6L506.9 86.8l27.899 31.5c.9.9 1.3 2 1.3 3.301 0 1.3-.5 2.399-1.399 3.3-.9.899-2 1.399-3.3 1.399-1.301 0-2.4-.5-3.4-1.399L498.8 92l-9.7 6.3v23.301c0 1.3-.5 2.399-1.399 3.3-.9.899-2 1.399-3.3 1.399-1.301 0-2.4-.5-3.301-1.399-.899-.9-1.399-2-1.399-3.3V37.1c0-1.3.5-2.4 1.399-3.3.9-.9 2-1.4 3.301-1.4 1.3 0 2.399.5 3.3 1.4.899.9 1.399 2 1.399 3.3V87h.1zm65.7 0l39.7-25.8c.7-.5 1.601-.7 2.5-.7 1.301 0 2.4.5 3.301 1.4.899.9 1.399 2 1.399 3.3s-.5 2.4-1.399 3.3c-.2.2-.5.4-.601.6l-27.2 17.7 27.9 31.5c.9.9 1.3 2 1.3 3.301 0 1.3-.5 2.399-1.399 3.3-.9.899-2 1.399-3.301 1.399-1.3 0-2.399-.5-3.399-1.399L564.5 92l-9.7 6.3v23.301c0 1.3-.5 2.399-1.399 3.3-.9.899-2 1.399-3.301 1.399-1.3 0-2.399-.5-3.3-1.399-.899-.9-1.399-2-1.399-3.3V37.1c0-1.3.5-2.4 1.399-3.3.9-.9 2-1.4 3.3-1.4 1.301 0 2.4.5 3.301 1.4.899.9 1.399 2 1.399 3.3V87h.1zm108.9 29.3c-6.6 6.601-14.399 9.9-23.5 9.9-9.1 0-16.8-3.2-23.2-9.6-6.399-6.4-9.6-14.2-9.6-23.2 0-9.101 3.2-16.8 9.6-23.2 6.4-6.4 14.2-9.6 23.2-9.6 9.101 0 16.8 3.2 23.2 9.6s9.6 14.2 9.6 23.2v28.2c0 1.3-.5 2.399-1.399 3.3-.9.899-2 1.399-3.3 1.399-1.301 0-2.4-.5-3.301-1.399-.899-.9-1.399-2-1.399-3.3v-5.3h.099zm-23.5-46.5c-6.5 0-12 2.3-16.6 6.9-4.601 4.6-6.9 10.1-6.9 16.6s2.3 12 6.9 16.601c4.6 4.6 10.1 6.899 16.6 6.899s12-2.3 16.601-6.899C661.5 105.3 663.8 99.8 663.8 93.3s-2.3-12-6.899-16.6c-4.501-4.6-10.101-6.9-16.601-6.9M139.7 48.7c-7.7-.4-14.9 1.2-21.3 4.2-8.1-5-17.7-7.7-28-7.1-23.6 1.4-42.8 20.3-44.6 43.9-2.1 27.9 20 51.2 47.5 51.2 9.2 0 17.8-2.601 25.1-7.2 5.8 2.7 12.2 4.3 19.1 4.3 25.2 0 45.5-20.899 44.6-46.3-.8-23.1-19.4-41.9-42.4-43M93.3 135c-24 0-43.3-20.399-41.6-44.7 1.4-20.7 18.2-37.4 38.9-38.7 7.9-.5 15.4 1.2 21.9 4.6-11.9 8-19.7 21.6-19.7 37 0 15.4 7.8 29 19.7 37-5.8 3.1-12.3 4.8-19.2 4.8"/><path fill="none" stroke="#FFF" stroke-miterlimit="10" d="M139.7 48.7c-7.7-.4-14.9 1.2-21.3 4.2-8.1-5-17.7-7.7-28-7.1-23.6 1.4-42.8 20.3-44.6 43.9-2.1 27.9 20 51.2 47.5 51.2 9.2 0 17.8-2.601 25.1-7.2 5.8 2.7 12.2 4.3 19.1 4.3 25.2 0 45.5-20.899 44.6-46.3-.8-23.1-19.4-41.9-42.4-43zM93.3 135c-24 0-43.3-20.399-41.6-44.7 1.4-20.7 18.2-37.4 38.9-38.7 7.9-.5 15.4 1.2 21.9 4.6-11.9 8-19.7 21.6-19.7 37 0 15.4 7.8 29 19.7 37-5.8 3.1-12.3 4.8-19.2 4.8z"/><path fill="#FFF" d="M90.4 1h5.8v29.8h-5.8z"/><path fill="none" stroke="#FFF" stroke-width="2" stroke-miterlimit="10" d="M90.4 1h5.8v29.8h-5.8z"/><path fill="#FFF" d="M90.4 155.8h5.8v29.801h-5.8z"/><path fill="none" stroke="#FFF" stroke-width="2" stroke-miterlimit="10" d="M90.4 155.8h5.8v29.801h-5.8z"/><path fill="#FFF" d="M1 90.4h29.8v5.8H1z"/><path fill="none" stroke="#FFF" stroke-width="2" stroke-miterlimit="10" d="M1 90.4h29.8v5.8H1z"/><path fill="#FFF" d="M40.59 150.055l-4.102-4.1 10.534-10.538 4.102 4.1z"/><path fill="none" stroke="#FFF" stroke-width="2" stroke-miterlimit="10" d="M40.59 150.055l-4.102-4.1 10.534-10.538 4.102 4.1z"/><path fill="#FFF" d="M40.585 36.488L51.12 47.024l-4.1 4.1L36.484 40.59z"/><path fill="none" stroke="#FFF" stroke-width="2" stroke-miterlimit="10" d="M40.585 36.488L51.12 47.024l-4.1 4.1L36.484 40.59z"/><path fill="#FEE13B" d="M137.3 48.2c25.239 0 45.7 20.192 45.7 45.1s-20.461 45.101-45.7 45.101c-25.239 0-45.7-20.192-45.7-45.101 0-24.908 20.461-45.1 45.7-45.1"/></svg>